<svg xmlns="http://www.w3.org/2000/svg" width="900" height="700" viewBox="0 0 900 700">
  <defs>
    <linearGradient id="doctorate-bg" x1="0" y1="0" x2="0" y2="1">
      <stop offset="0%" stop-color="#faf7ef"/>
      <stop offset="100%" stop-color="#f0eadb"/>
    </linearGradient>
    <radialGradient id="doctorate-seal" cx="50%" cy="40%" r="60%">
      <stop offset="0%" stop-color="#b89b5e"/>
      <stop offset="100%" stop-color="#6b4f2a"/>
    </radialGradient>
    <clipPath id="clip-doc1"><circle cx="450" cy="400" r="50"/></clipPath>
  </defs>

  <rect width="900" height="700" fill="url(#doctorate-bg)"/>
  <rect x="30" y="30" width="840" height="640" fill="none" stroke="#5a4428" stroke-width="2"/>
  <rect x="40" y="40" width="820" height="620" fill="none" stroke="#b89b5e" stroke-width="0.75"/>

  <g stroke="#5a4428" stroke-width="1" fill="none">
    <path d="M60 100 Q60 60 100 60 Q120 60 130 75"/>
    <path d="M60 100 Q75 100 90 90"/>
    <circle cx="100" cy="60" r="2" fill="#5a4428"/>
    <path d="M840 100 Q840 60 800 60 Q780 60 770 75"/>
    <path d="M840 100 Q825 100 810 90"/>
    <circle cx="800" cy="60" r="2" fill="#5a4428"/>
    <path d="M60 600 Q60 640 100 640 Q120 640 130 625"/>
    <path d="M60 600 Q75 600 90 610"/>
    <circle cx="100" cy="640" r="2" fill="#5a4428"/>
    <path d="M840 600 Q840 640 800 640 Q780 640 770 625"/>
    <path d="M840 600 Q825 600 810 610"/>
    <circle cx="800" cy="640" r="2" fill="#5a4428"/>
  </g>

  <text x="450" y="90" text-anchor="middle" font-family="Georgia, serif" font-size="13" fill="#6b5a3a" letter-spacing="5">THE UNIVERSITY OF ELYSIAN STUDIES</text>
  <text x="450" y="122" text-anchor="middle" font-family="Georgia, serif" font-size="20" fill="#3b2f1a" letter-spacing="3">DIPLOMA</text>
  <line x1="280" y1="142" x2="620" y2="142" stroke="#b89b5e" stroke-width="1"/>
  <circle cx="450" cy="142" r="2" fill="#b89b5e"/>

  <text x="450" y="180" text-anchor="middle" font-family="Georgia, serif" font-size="13" fill="#6b5a3a" font-style="italic">The Regents, on the recommendation of the faculty,</text>
  <text x="450" y="200" text-anchor="middle" font-family="Georgia, serif" font-size="13" fill="#6b5a3a" font-style="italic">have conferred upon</text>

  <image href="{{avatar1}}" x="400" y="350" width="100" height="100" preserveAspectRatio="xMidYMid slice" clip-path="url(#clip-doc1)"/>
  <circle cx="450" cy="400" r="50" fill="none" stroke="#5a4428" stroke-width="1.5"/>
  <circle cx="450" cy="400" r="56" fill="none" stroke="#b89b5e" stroke-width="0.5"/>

  <g fill="#8a6f45">
    <polygon points="450,458 440,500 450,492 460,500"/>
  </g>

  <text x="450" y="548" text-anchor="middle" font-family="Georgia, serif" font-size="30" fill="#2b1f10">{{person1}}</text>

  <text x="450" y="582" text-anchor="middle" font-family="Georgia, serif" font-size="15" fill="#3b2f1a" letter-spacing="2">DOCTOR OF {{field}}</text>
  <text x="450" y="602" text-anchor="middle" font-family="Georgia, serif" font-size="11" fill="#6b5a3a" font-style="italic">honoris causa</text>

  <text x="450" y="635" text-anchor="middle" font-family="Georgia, serif" font-size="11" fill="#6b5a3a">for distinguished contributions to {{achievement}}</text>

  <text x="450" y="668" text-anchor="middle" font-family="Georgia, serif" font-size="9" fill="#a08a5e" font-style="italic">for entertainment only</text>
</svg>